<?xml version="1.0" encoding="UTF-8" standalone="no"?>
<!-- Created with Inkscape (http://www.inkscape.org/) -->

<svg
   xmlns:dc="http://purl.org/dc/elements/1.1/"
   xmlns:cc="http://creativecommons.org/ns#"
   xmlns:rdf="http://www.w3.org/1999/02/22-rdf-syntax-ns#"
   xmlns:svg="http://www.w3.org/2000/svg"
   xmlns="http://www.w3.org/2000/svg"
   xmlns:sodipodi="http://sodipodi.sourceforge.net/DTD/sodipodi-0.dtd"
   xmlns:inkscape="http://www.inkscape.org/namespaces/inkscape"
   width="744.09448819"
   height="1052.3622047"
   id="svg2"
   version="1.1"
   inkscape:version="0.48+devel r9772"
   sodipodi:docname="New document 1">
  <defs
     id="defs4" />
  <sodipodi:namedview
     id="base"
     pagecolor="#ffffff"
     bordercolor="#666666"
     borderopacity="1.0"
     inkscape:pageopacity="0.0"
     inkscape:pageshadow="2"
     inkscape:zoom="0.66136926"
     inkscape:cx="372.04724"
     inkscape:cy="526.18109"
     inkscape:document-units="px"
     inkscape:current-layer="layer1"
     showgrid="false"
     inkscape:window-width="1440"
     inkscape:window-height="851"
     inkscape:window-x="0"
     inkscape:window-y="1"
     inkscape:window-maximized="1" />
  <metadata
     id="metadata7">
    <rdf:RDF>
      <cc:Work
         rdf:about="">
        <dc:format>image/svg+xml</dc:format>
        <dc:type
           rdf:resource="http://purl.org/dc/dcmitype/StillImage" />
        <dc:title></dc:title>
      </cc:Work>
    </rdf:RDF>
  </metadata>
  <g
     inkscape:label="Layer 1"
     inkscape:groupmode="layer"
     id="layer1">
    <g
       id="g4391"
       transform="translate(0.00313134,0.01135328)">
      <path
         id="path4241"
         d="m 302.84375,163.875 c -15.5421,0.0248 -16.57611,0.3942 -15.9375,2.40625 0.74526,2.34813 -11.24438,24.04304 -56.03125,101.5625 -8.55278,14.80351 -15.53125,27.26515 -15.53125,27.65625 0,0.39113 11.94425,21.32304 26.5625,46.53125 L 268.5,387.875 l -5.9375,10.46875 -5.96875,10.46875 -13.46875,0.375 -13.5,0.375 L 194.6875,348.5 c -31.16234,-54.47544 -35.36255,-61.17028 -38.875,-62 -2.16561,-0.51156 -12.70385,-1.27501 -23.4375,-1.6875 -18.93915,-0.72779 -19.51243,-0.66166 -18.6875,1.9375 0.59371,1.87055 -2.61509,8.73766 -10.65625,22.78125 -6.332495,11.0594 -24.844646,43.75925 -41.15625,72.65625 -16.311604,28.897 -31.133785,54.82644 -32.9375,57.625 -1.803702,2.79854 -3.28125,6.4073 -3.28125,8.03125 0,1.62394 3.954866,10.46828 8.8125,19.625 l 8.84375,16.625 L 66.09375,485 c 12.525395,0.494 44.6844,0.90625 71.46875,0.90625 55.55241,0 49.558,-1.45193 57.9375,13.875 l 4.96875,9.125 L 193.375,521.5 186.28125,534.0625 132.90625,533.125 79.5625,532.15625 49.96875,584.4375 C 14.302954,647.44643 8.8467965,658.31414 10.09375,664 c 0.49408,2.25283 4.259799,11.20515 8.34375,19.90625 l 7.40625,15.8125 30.84375,0.90625 c 16.957126,0.49348 31.115573,1.17805 31.46875,1.53125 0.49497,0.49496 -19.407538,36.70961 -27.53125,50.09375 -1.071891,1.76599 0.764275,6.7867 8.09375,22.15625 L 78.1875,794.25 88.75,794.28125 c 6.123079,0.0156 10.59375,0.61617 10.59375,1.40625 0,0.89118 22.35922,1.3437 64.46875,1.3125 l 64.5,-0.0625 27.09375,-46.96875 c 17.76314,-30.79943 28.03255,-47.27883 29.8125,-47.84375 1.4935,-0.47406 8.09365,-0.45937 14.6875,0.0625 l 12,0.96875 5.96875,11.46875 5.96875,11.46875 -3.9375,7.15625 c -2.15347,3.93482 -18.22976,31.81305 -35.75,61.9375 -17.52037,30.12446 -32.0337,55.32487 -32.25,56 -0.21631,0.67512 3.90225,9.33339 9.15625,19.25 l 9.53125,18.03125 96.5625,0 c 88.45413,0.004 96.5625,-0.17481 96.5625,-2.21875 0,-1.22708 4.02097,-9.1583 8.9375,-17.625 l 8.9375,-15.40625 -9.8125,-17.5 c -5.38951,-9.63353 -21.46567,-38.02019 -35.71875,-63.0625 L 410.15625,727.125 413.3125,721.5 c 1.73411,-3.10412 4.77627,-8.40369 6.75,-11.78125 l 3.59375,-6.15625 12.84375,0 12.875,0 5.46875,8.34375 c 3.00228,4.59163 15.58433,26.23222 27.96875,48.0625 l 22.53125,39.6875 29.3125,0.0625 c 16.13727,0.0344 50.855,-0.34362 77.125,-0.84375 l 47.75,-0.90625 10,-17.53125 9.96875,-17.5 -15.78125,-27.8125 c -8.67948,-15.28613 -15.78125,-28.18055 -15.78125,-28.65625 0,-0.4757 14.8924,-0.8579 33.09375,-0.875 l 33.09375,-0.0312 8.84375,-15 c 4.8581,-8.23968 9.33977,-14.96875 9.96875,-14.96875 4.50247,0 -2.556,-13.88581 -37.25,-73.40625 l -37.5,-64.375 -40.96875,-0.1875 C 594.7016,537.51984 569.91878,537.0335 562.125,536.56255 L 547.9375,535.7188 541.96875,524.6563 536,513.5625 l 6.25,-11.09375 6.21875,-11.09375 73.53125,0 73.5,0 9.65625,-16.90625 c 10.17749,-17.79301 11.58706,-23.13788 7.34375,-28.09375 -6.25635,-7.30685 -86.65381,-153.07343 -85.9375,-155.8125 0.60032,-2.29543 -0.48894,-2.43606 -16.625,-1.78125 -9.49432,0.3853 -20.96531,1.03858 -25.46875,1.4375 l -8.1875,0.71875 -34.78125,60.65625 -34.8125,60.625 -15,-0.34375 -15,-0.34375 -6,-10.0625 -6,-10.03125 3,-6.21875 c 1.66271,-3.42242 13.54321,-24.35259 26.375,-46.5 12.83186,-22.1474 23.30315,-40.91523 23.28125,-41.71875 -0.0222,-0.8035 -13.40815,-24.50982 -29.75,-52.65625 -39.74644,-68.45765 -43.71284,-75.94667 -41.59375,-78.5 1.46348,-1.76327 -1.54129,-2.01165 -24.09375,-1.96875 l -25.75,0.0625 L 381.3125,190.5 c -8.17101,14.60915 -15.25817,26.5695 -15.71875,26.5625 -0.46044,-0.007 -7.58748,-11.96476 -15.84375,-26.5625 l -15,-26.5625 -24.3125,-0.0312 c -2.84927,-0.007 -5.37345,-0.0348 -7.59375,-0.0312 z m 118.125,116 c 1.52575,0.0989 3.25171,3.49047 7.4375,10.78125 l 3.59375,6.25 -4.90625,8.53125 c -2.70042,4.68485 -5.26226,8.53125 -5.6875,8.53125 -0.42524,0 -2.96373,-4.07522 -5.65625,-9.03125 l -4.90625,-9 4.90625,-8.84375 c 2.43272,-4.37685 3.65538,-6.90843 4.90625,-7.1875 0.10052,-0.0224 0.21078,-0.0378 0.3125,-0.0312 z m -109.1875,0.375 c 0.89345,0.15953 3.30814,3.17863 5.59375,7 l 4.4375,7.40625 -4.84375,8.28125 c -2.67189,4.55887 -5.09074,8.28125 -5.375,8.28125 -0.28426,0 -2.52148,-3.5038 -4.96875,-7.78125 l -4.46875,-7.78125 4.0625,-7.46875 c 2.23724,-4.11482 4.67806,-7.66354 5.40625,-7.90625 0.0455,-0.0152 0.0967,-0.0419 0.15625,-0.0312 z m 55.09375,92.375 c 0.42866,0 2.88077,4.01299 5.46875,8.90625 l 4.71875,8.90625 -4.15625,7.71875 c -2.28447,4.24957 -4.84071,7.9469 -5.65625,8.21875 -1.49022,0.49673 -10,-13.25264 -10,-16.15625 0,-1.94366 8.56479,-17.59375 9.625,-17.59375 z M 136.75,398.5625 c 0.73581,0 6.25,8.88302 6.25,10.0625 0,0.47435 -2.74744,0.84375 -6.125,0.84375 -3.37757,0 -6.15925,-0.43708 -6.15625,-1 0.006,-1.30626 5.24501,-9.90625 6.03125,-9.90625 z m 463.34375,5.6875 c 0.99835,-0.22854 2.04496,1.06116 3.5,3.875 l 2.125,4.09375 -4.8125,0 c -5.42211,0 -5.41603,0.035 -3.25,-4.71875 0.90045,-1.97642 1.66101,-3.07225 2.4375,-3.25 z M 421.5625,466.8125 c 0.5636,0 3.65559,4.85207 6.875,10.8125 3.61011,6.68397 6.91739,11.13492 8.625,11.59375 1.52284,0.40918 7.52683,0.7387 13.34375,0.75 5.81693,0.0102 10.5625,0.27045 10.5625,0.5625 0,0.29205 -2.43523,4.73732 -5.4375,9.875 -3.0023,5.13766 -5.46875,10.49954 -5.46875,11.9375 0,1.43793 2.46645,6.88637 5.46875,12.09375 3.00227,5.2074 5.4375,10.11847 5.4375,10.90625 0,0.97282 -9.70045,1.26535 -30.25,0.90625 l -30.25,-0.53125 -3.625,6.125 c -1.98642,3.37757 -7.07886,12.66564 -11.34375,20.625 l -7.75,14.46875 15,26.15625 c 8.25599,14.37871 15,26.44581 15,26.8125 0,0.36672 -6.43125,0.65625 -14.3125,0.65625 l -14.34375,0 -3.75,6.9375 c -2.06381,3.8246 -4.73468,8.25025 -5.9375,9.8125 -2.13121,2.76813 -2.31859,2.58536 -7.84375,-6.875 -3.11828,-5.33916 -6.04964,-10.67021 -6.5,-11.84375 -0.66212,-1.72562 -3.25825,-2.125 -13.625,-2.125 -8.62773,0 -12.84375,-0.52333 -12.84375,-1.5625 0,-1.64106 9.49455,-18.62519 21.4375,-38.40625 3.98116,-6.5939 7.2189,-12.74442 7.1875,-13.65625 -0.0319,-0.91182 -4.81326,-9.61757 -10.625,-19.375 L 336,535.71875 l -30.3125,-0.375 c -21.031,-0.2548 -30.3125,-0.82707 -30.3125,-1.875 0,-0.83083 2.56322,-6.24694 5.6875,-12.03125 l 5.6875,-10.5 -5.6875,-10.3125 c -3.12428,-5.65969 -5.6875,-10.9667 -5.6875,-11.8125 0,-1.02862 4.18162,-1.5512 12.625,-1.5625 l 12.625,-0.0312 6,-10.3125 c 4.90982,-8.47548 6.29268,-9.98961 7.71875,-8.5 1.21457,1.26874 28.44866,47.90097 29.875,51.15625 0.0561,0.12797 10.21221,0.63142 22.59375,1.125 l 22.53125,0.90625 15.59375,-27.40625 c 8.57972,-15.07001 16.06125,-27.375 16.625,-27.375 z m -278.40625,141.78125 -1.65625,3.125 c -0.91338,1.72257 -3.10746,5.43536 -4.875,8.25 -3.17594,5.05753 -3.31317,5.125 -12.0625,5.125 -4.86929,0 -8.8295,-0.46832 -8.8125,-1.03125 0.0175,-0.56292 1.70337,-4.0909 3.75,-7.84375 l 3.71875,-6.8125 9.96875,-0.40625 9.96875,-0.40625 z m 106.625,1.375 -4.0625,7.21875 -4.09375,7.21875 -9.875,0.40625 -9.875,0.40625 L 226.03125,618 230.1875,610.78125 240,610.375 l 9.78125,-0.40625 z m 356.1875,4.21875 9.90625,0 3.59375,5.8125 c 1.97413,3.18858 4.28928,7.15496 5.15625,8.84375 1.5702,3.05782 1.54362,3.09375 -9.25,3.09375 l -10.84375,0 -4.21875,-7.5 c -2.32336,-4.11676 -4.21875,-8.11306 -4.21875,-8.875 0,-0.81017 4.0889,-1.376 9.875,-1.375 z M 488.8125,614.375 c 2.01922,-0.0486 4.81137,-0.0153 7.875,0.0937 l 11.125,0.40625 4.6875,8.53125 4.6875,8.53125 -11,0 -10.96875,0 -4.84375,-8.28125 c -2.66304,-4.54364 -4.84375,-8.54081 -4.84375,-8.90625 0,-0.18277 1.26203,-0.32643 3.28125,-0.375 z m -311.0625,87.15625 8.5625,0 c 4.70335,0 8.53825,0.43708 8.53125,1 -0.007,0.56292 -1.86515,4.24701 -4.125,8.1875 l -4.09375,7.1875 -8.84375,0 c -4.86351,0 -8.84375,-0.36686 -8.84375,-0.8125 0,-0.44562 1.97917,-4.12972 4.40625,-8.1875 l 4.40625,-7.375 z m 359.4375,2.71875 10.96875,0 10.96875,0 5.5,9.28125 c 3.03571,5.11002 5.53125,10.04293 5.53125,10.9375 0,0.89454 -0.78053,1.49081 -1.71875,1.34375 -0.93822,-0.14698 -5.72008,-0.45986 -10.625,-0.71875 -6.60079,-0.34841 -9.26988,-1.08603 -10.3125,-2.8125 -0.77486,-1.28288 -3.39975,-5.87172 -5.84375,-10.1875 L 537.1875,704.25 z m -170.375,98.28125 c 1.45091,0.002 6.53292,10.92865 5.40625,11.625 -1.31419,0.81221 -10.62441,0.40684 -11.53125,-0.5 -0.65941,-0.6594 5.10231,-11.12599 6.125,-11.125 z"
         style="fill:#808080"
         inkscape:connector-curvature="0" />
      <path
         inkscape:connector-curvature="0"
         id="path4239"
         d="m 448.69646,881.05605 c 0,-0.33141 -10.96762,-20.13626 -24.37243,-44.01078 -13.40479,-23.87453 -35.89271,-63.98072 -49.97316,-89.12486 -14.0803,-25.14414 -29.87233,-53.23937 -35.09317,-62.43389 l -9.49254,-16.71726 -13.4419,0 -13.44192,0 -6.92586,12.10286 c -3.80935,6.65657 -6.92601,12.49055 -6.92601,12.9644 0,0.47387 6.07882,0.86156 13.5085,0.86156 l 13.50837,0 4.40764,8.52923 c 2.42408,4.69107 6.72377,12.52088 9.55493,17.39961 10.72443,18.48107 72.00856,126.42527 74.14129,130.59018 1.22724,2.39677 1.77296,4.56015 1.21277,4.80751 -0.56008,0.24736 -32.64481,0.0651 -71.29923,-0.40485 -38.6544,-0.47002 -70.47371,-0.70049 -70.70953,-0.51217 -0.50477,0.40322 8.74198,18.97325 11.68177,23.45989 l 2.0253,3.09107 85.81759,0 c 47.19973,0 85.81759,-0.27113 85.81759,-0.6025 z"
         style="fill:#800000" />
      <path
         inkscape:connector-curvature="0"
         id="path4237"
         d="m 464.20666,863.97563 7.59755,-12.22419 -32.24741,-56.35073 c -17.73612,-30.99287 -34.83387,-60.95647 -37.995,-66.58576 -3.16114,-5.62928 -12.34813,-21.90302 -20.41568,-36.16389 -8.06741,-14.26084 -17.69122,-31.28369 -21.38622,-37.82856 -3.69499,-6.54487 -7.16605,-12.17658 -7.71342,-12.51491 -0.54751,-0.33832 -3.92385,4.53332 -7.50311,10.82591 l -6.50773,11.44104 2.29387,4.48556 c 6.76552,13.22929 115.41002,207.09819 116.07613,207.13003 0.11188,0.004 3.62239,-5.49117 7.80102,-12.2145 z"
         style="fill:#ff5555" />
      <path
         inkscape:connector-curvature="0"
         id="path4235"
         d="m 392.32584,846.51818 c -0.31906,-0.56295 -3.47954,-6.08988 -7.02333,-12.28208 l -6.44331,-11.25857 -34.8258,0 c -31.20659,0 -34.73959,-0.22447 -33.9968,-2.16021 0.45581,-1.18811 8.19787,-14.77408 17.20431,-30.19105 9.0066,-15.41695 16.37557,-28.48496 16.37557,-29.04003 0,-1.72289 -13.82483,-25.95005 -14.7857,-25.91114 -0.49947,0.0192 -15.14927,24.73789 -32.5553,54.92815 l -31.64721,54.89141 20.72982,0.73653 c 33.69423,1.19716 107.59591,1.39543 106.96775,0.28699 z"
         style="fill:#ff0000" />
      <path
         inkscape:connector-curvature="0"
         id="path4231"
         d="m 355.02844,806.26026 c 8.21778,-12.92648 8.15216,-11.49859 1.09828,-23.91041 -3.50312,-6.16373 -6.74257,-11.21202 -7.19893,-11.21838 -0.8712,-0.0127 -24.41677,39.94167 -24.41677,41.43224 0,0.47361 5.84163,0.86109 12.98133,0.86109 l 12.98135,0 4.55474,-7.16454 z"
         style="fill:#ff5555" />
      <path
         inkscape:connector-curvature="0"
         id="path4229"
         d="m 646.57419,790.73252 c 0,-0.82649 -47.41428,-83.84283 -83.29855,-145.84506 l -17.37601,-30.02285 -14.62546,-0.38878 -14.62551,-0.38876 2.71748,4.48278 c 1.4946,2.46556 12.53152,21.37065 24.52648,42.01138 11.99508,20.64069 30.40687,52.26705 40.91527,70.28073 10.50854,18.01374 18.93828,33.05927 18.73304,33.43454 -0.20517,0.37529 -17.27514,0.50999 -37.93292,0.29937 l -37.55967,-0.38301 -5.72058,-10.53439 c -3.14625,-5.79393 -10.6876,-19.28539 -16.75835,-29.98103 l -11.03789,-19.44663 -16.7765,0 c -9.2271,0 -16.77649,0.25022 -16.77649,0.55607 0,0.81977 30.28458,53.72421 40.48716,70.72739 l 8.79016,14.64946 39.15988,0.38375 c 21.53786,0.21112 52.20945,0.52746 68.15909,0.70313 15.94967,0.17558 28.99937,-0.0664 28.99937,-0.53809 z"
         style="fill:#800000" />
      <path
         inkscape:connector-curvature="0"
         id="path4227"
         d="m 216.67235,787.95222 c -0.0171,-0.62621 -2.95388,-6.66552 -6.52831,-13.42064 l -6.49897,-12.28207 -19.05933,-0.85702 c -10.48263,-0.47134 -40.40504,-0.93191 -66.49422,-1.02349 l -47.434885,-0.16644 6.826466,13.60335 6.826481,13.60336 16.044258,0.38457 c 44.35256,1.06305 116.34437,1.16112 116.31851,0.15835 z"
         style="fill:#aa0000" />
      <path
         inkscape:connector-curvature="0"
         id="path4225"
         d="m 664.21137,771.99712 5.712,-9.35781 -21.12366,-37.04115 c -11.61803,-20.37259 -29.25197,-51.1655 -39.18666,-68.42863 -9.93469,-17.26315 -19.55238,-33.99746 -21.37286,-37.1874 l -3.30975,-5.79986 -14.35842,0 c -12.55473,0 -14.25389,0.27217 -13.52694,2.16668 0.4573,1.19166 12.11587,21.61062 25.90781,45.37546 13.79209,23.7648 35.35668,61.01776 47.92139,82.78431 12.56469,21.76656 23.14365,40.08126 23.50899,40.6993 0.76258,1.29062 1.95338,-0.30999 9.8281,-13.2109 z"
         style="fill:#ff5555" />
      <path
         inkscape:connector-curvature="0"
         id="path4223"
         d="m 254.92394,734.956 c 15.19715,-26.27 34.53542,-59.73864 42.97402,-74.37477 8.43873,-14.63616 19.90964,-34.28749 25.49102,-43.66963 15.8338,-26.61616 24.32152,-41.80433 24.32152,-43.52173 0,-1.6445 -12.10822,-23.08616 -13.51997,-23.94147 -0.77828,-0.47158 -7.19088,10.34683 -51.31355,86.56866 -11.07938,19.13956 -23.03489,39.71204 -26.56804,45.71661 -29.45268,50.05537 -43.70125,75.06036 -43.70125,76.6916 0,2.89071 12.83175,26.30736 13.82483,25.22884 0.47313,-0.51398 13.29439,-22.42812 28.49142,-48.69811 z"
         style="fill:#ff5555" />
      <path
         inkscape:connector-curvature="0"
         id="path4221"
         d="m 588.37256,756.43694 c 0.35223,-0.56993 -2.24652,-5.94334 -5.77503,-11.94092 l -6.41547,-10.90469 -12.90873,-0.38205 -12.90861,-0.38209 -6.48219,10.83342 c -3.56522,5.95837 -6.48222,11.17881 -6.48222,11.60101 0,0.42221 8.13689,0.9584 18.08195,1.19155 9.94495,0.23318 21.2697,0.55805 25.16584,0.72195 3.89629,0.16389 7.37224,-0.16835 7.72446,-0.73818 z"
         style="fill:#ff0000" />
      <path
         inkscape:connector-curvature="0"
         id="path4219"
         d="m 217.76052,731.20315 c 27.14915,-46.09438 49.9889,-85.23733 67.88308,-116.33854 10.36429,-18.01372 23.8818,-41.34966 30.03893,-51.85766 l 11.19485,-19.10545 -11.07706,-0.88807 c -6.09233,-0.48841 -18.88684,-0.94898 -28.43205,-1.0235 l -17.355,-0.13534 -7.55032,12.82916 c -4.15271,7.05604 -7.55035,13.19708 -7.55035,13.64676 0,0.44969 5.83399,0.8176 12.96442,0.8176 7.78465,0 12.96442,0.54851 12.96442,1.37287 0,1.30049 -13.03184,23.88974 -66.52097,115.30684 l -23.15613,39.57557 -21.00701,0.34812 c -11.55385,0.19157 -28.51594,-0.11556 -37.6935,-0.68232 l -16.68652,-1.03047 6.09488,-10.23505 c 3.35218,-5.62931 6.1018,-10.69565 6.11027,-11.25859 0.008,-0.56292 -6.69781,-1.0235 -14.90286,-1.0235 l -14.918247,0 -13.398759,23.45949 c -7.369298,12.90272 -13.592285,23.92311 -13.828856,24.48973 -0.697609,1.67109 10.784488,2.02507 74.322972,2.29131 l 60.24612,0.25244 12.25769,-20.81129 z"
         style="fill:#ff0000" />
      <path
         inkscape:connector-curvature="0"
         id="path4217"
         d="m 541.41151,731.69888 c 1.29739,-2.42418 0.45225,-4.68461 -5.66408,-15.14872 l -7.18898,-12.29935 -12.7945,0 -12.79453,0 1.94973,3.07053 c 1.07236,1.68877 7.07951,12.14195 13.34939,23.22928 l 11.39968,20.15874 5.10919,-8.08053 c 2.81,-4.44433 5.79552,-9.36279 6.6341,-10.92995 z"
         style="fill:#ff5555" />
      <path
         inkscape:connector-curvature="0"
         id="path4213"
         d="m 163.34911,710.41252 c 2.32338,-4.11676 4.22431,-7.82216 4.22431,-8.2342 0,-0.41208 -6.60059,-0.57489 -14.66797,-0.36187 l -14.668,0.38736 -3.68951,6.82338 -3.6895,6.82336 10.51063,0.77327 c 5.78082,0.42528 12.14077,0.88585 14.13318,1.02349 3.06577,0.21176 4.27188,-0.90026 7.84686,-7.23479 z"
         style="fill:#ff5555" />
      <path
         inkscape:connector-curvature="0"
         id="path4209"
         d="m 411.87642,709.39323 c 2.61254,-4.67738 4.93918,-8.92909 5.17021,-9.44826 0.23105,-0.51919 -2.47959,-5.9346 -6.02382,-12.03427 -7.25584,-12.48775 -7.05468,-12.48728 -13.9815,-0.0321 l -4.17643,7.50964 6.16121,11.25465 c 3.38863,6.19003 6.59738,11.25461 7.13071,11.25461 0.53318,0 3.10694,-3.82692 5.71962,-8.50431 z"
         style="fill:#ff5555" />
      <path
         inkscape:connector-curvature="0"
         id="path4207"
         d="m 552.8595,695.03926 c 0.33474,-0.56294 -2.16888,-5.7828 -5.56393,-11.59975 l -6.17269,-10.57622 -64.63633,0 c -35.55005,0 -64.63632,0.28528 -64.63632,0.63393 0,0.34866 2.80441,5.25317 6.23204,10.89888 l 6.23193,10.26492 44.60208,0.37902 c 24.53127,0.20837 53.3169,0.52383 63.96819,0.70084 10.65141,0.17708 19.64014,-0.13873 19.97503,-0.70162 z"
         style="fill:#aa0000" />
      <path
         inkscape:connector-curvature="0"
         id="path4205"
         d="m 699.6992,695.03926 c -0.0533,-0.56294 -14.96951,-26.20176 -33.14646,-56.97519 l -33.04916,-55.95167 -70.91001,-1.00634 c -39.00035,-0.55347 -94.03291,-0.86053 -122.29451,-0.68235 l -51.38437,0.32402 14.35869,24.7278 14.35871,24.7278 8.22667,0.85986 c 9.87096,1.0317 26.93171,1.13734 26.93171,0.16687 0,-0.3812 -3.07051,-6.09351 -6.82336,-12.69403 -3.75286,-6.6005 -6.82339,-12.38775 -6.82339,-12.86054 0,-0.47281 1.68879,-0.63679 3.75286,-0.36444 2.06407,0.27237 42.89324,0.53754 90.73151,0.58924 l 86.97864,0.0941 3.25885,5.11751 c 5.36878,8.43103 36.35536,61.60856 36.35536,62.39128 0,0.39872 -6.75516,0.72496 -15.01143,0.72496 -8.25629,0 -15.01142,0.30688 -15.01142,0.68198 0,0.37508 2.5761,5.28792 5.72453,10.91738 l 5.72454,10.23542 29.07467,0 c 15.99113,0 29.03085,-0.46057 28.97737,-1.0235 z"
         style="fill:#aa0000" />
      <path
         inkscape:connector-curvature="0"
         id="path4203"
         d="m 719.04539,682.86104 7.14994,-11.83706 -3.12744,-5.56256 c -14.43551,-25.67616 -64.8226,-111.32484 -65.49237,-111.32484 -0.88556,0 -15.09537,23.43195 -15.09537,24.89231 0,0.45729 6.66998,12.08498 14.82203,25.83931 8.15215,13.75429 22.6409,38.21106 32.19718,54.34834 19.70768,33.27952 21.06293,35.48154 21.83682,35.48154 0.30762,0 3.77675,-5.32667 7.70921,-11.83704 z"
         style="fill:#ff5555" />
      <path
         inkscape:connector-curvature="0"
         id="path4201"
         d="m 208.29448,680.91332 c 4.0076,-6.79523 7.07813,-12.53387 6.82339,-12.75253 -1.14785,-0.98527 -196.294015,-2.1967 -196.294015,-1.21855 0,0.60551 2.552577,6.47227 5.672398,13.03719 l 5.672412,11.93628 28.785646,0.39632 c 15.832089,0.21795 54.270929,0.52229 85.419619,0.67628 l 56.63404,0.27998 7.28651,-12.35497 z"
         style="fill:#aa0000" />
      <path
         inkscape:connector-curvature="0"
         id="path4199"
         d="m 394.50057,674.74213 6.13065,-10.40326 67.84756,0.24723 67.84755,0.24722 -4.48748,-7.92592 c -2.46814,-4.35927 -5.92242,-10.23448 -7.67613,-13.05606 l -3.18871,-5.13015 -68.5498,0.35377 -68.54982,0.3538 -5.63992,9.94048 -5.64007,9.94051 7.00473,12.88756 c 3.85249,7.08818 7.402,12.90119 7.88757,12.91783 0.48568,0.0171 3.64188,-4.65124 7.01387,-10.37301 z"
         style="fill:#ff0000" />
      <path
         inkscape:connector-curvature="0"
         id="path4197"
         d="m 638.43157,652.4726 -7.07391,-12.36152 -10.89532,0 c -5.99255,0 -10.63435,0.4606 -10.31543,1.02352 0.31906,0.56292 3.46503,6.06474 6.99123,12.22624 l 6.41111,11.20272 10.48902,0.39702 c 5.76891,0.21834 10.70902,0.27922 10.97814,0.13519 0.26898,-0.14387 -2.69413,-5.8244 -6.58484,-12.62324 z"
         style="fill:#ff0000" />
      <path
         inkscape:connector-curvature="0"
         id="path4195"
         d="m 338.4116,648.28512 7.75941,-13.63273 -11.85343,0.004 -11.85357,0.004 -7.09766,12.58037 c -5.06542,8.97811 -6.62838,12.87871 -5.4587,13.62222 0.90136,0.573 5.93769,1.04492 11.19169,1.04872 l 9.55273,0.007 7.75953,-13.63272 z"
         style="fill:#ff0000" />
      <path
         inkscape:connector-curvature="0"
         id="path4193"
         d="m 228.25792,646.64693 c 4.15201,-6.75072 7.54923,-12.51821 7.54923,-12.81664 0,-0.29841 -38.34523,-0.54258 -85.21163,-0.54258 -46.86639,0 -85.500837,-0.46793 -85.854311,-1.03984 -0.353445,-0.57192 7.523807,-15.46392 17.50503,-33.09335 l 18.147681,-32.05354 33.14244,0 33.14243,0 7.24717,-12.28208 c 3.98595,-6.75514 7.25775,-12.74264 7.27069,-13.30559 0.0127,-0.56292 -21.62363,-1.00524 -48.08128,-0.9829 l -48.104775,0.0404 -5.268449,9.17096 c -2.897644,5.0441 -14.830197,25.75184 -26.516769,46.01725 -27.874931,48.33727 -34.346808,59.83434 -34.376729,61.06921 -0.01272,0.56292 21.929414,1.10771 48.762333,1.21062 26.832919,0.10299 71.201929,0.5635 98.597769,1.02352 27.39584,0.46001 50.86573,0.61635 52.15526,0.34743 1.28952,-0.26891 5.74175,-6.01225 9.89391,-12.76299 z"
         style="fill:#ff0000" />
      <path
         inkscape:connector-curvature="0"
         id="path4189"
         d="m 485.54268,630.66724 c 0,-0.6907 -1.99583,-4.67025 -4.4352,-8.8435 l -4.43521,-7.58768 -11.94089,-0.0268 c -6.5675,-0.0148 -11.94091,0.35333 -11.94091,0.81807 0,0.46474 2.19372,4.45643 4.87518,8.8704 l 4.87516,8.02539 11.50093,0 c 6.32541,0 11.50094,-0.56511 11.50094,-1.2558 z"
         style="fill:#ff5555" />
      <path
         inkscape:connector-curvature="0"
         id="path4183"
         d="m 111.37536,614.67482 5.24533,-10.42482 -5.95365,-11.04306 c -3.27448,-6.07366 -6.47126,-11.56066 -7.10389,-12.19331 -1.0678,-1.06781 -14.154941,20.42029 -22.486731,36.92149 l -3.617517,7.16454 14.335552,0 14.335566,0 5.24534,-10.42484 z"
         style="fill:#ff5555" />
      <path
         inkscape:connector-curvature="0"
         id="path4179"
         d="m 179.45178,615.20576 c 3.07259,-5.44163 17.00955,-29.81906 30.97099,-54.17204 13.96138,-24.353 25.38438,-44.79206 25.38438,-45.42014 0,-0.62809 -6.79034,-0.96832 -15.08971,-0.75611 l -15.08968,0.38586 -13.34099,23.19948 c -17.77472,30.90959 -39.61923,69.10741 -45.06974,78.80996 l -4.40806,7.84689 15.52813,0 15.52811,0 5.58657,-9.8939 z"
         style="fill:#ff0000" />
      <path
         inkscape:connector-curvature="0"
         id="path4177"
         d="m 217.13179,617.25277 c 12.15617,-20.2019 60.07047,-104.80358 60.07047,-106.06558 0,-0.78288 -2.91947,-6.48508 -6.48781,-12.67154 l -6.48794,-11.24814 -14.97252,0 c -8.23501,0 -14.71163,0.46057 -14.39254,1.0235 0.31905,0.56292 3.44892,6.03686 6.95547,12.16427 l 6.37535,11.14082 -31.60774,55.04592 c -17.38425,30.27528 -31.90457,55.81358 -32.26736,56.7518 -0.50212,1.29848 2.77358,1.70584 13.71661,1.70584 l 14.3763,0 4.72171,-7.84689 z"
         style="fill:#ff5555" />
      <path
         inkscape:connector-curvature="0"
         id="path4173"
         d="m 261.27062,590.30048 c 3.98296,-6.75514 7.2523,-12.74264 7.26526,-13.30556 0.0127,-0.56292 -4.12172,-1.00634 -9.18808,-0.98532 l -9.21155,0.0383 -6.82339,11.86895 c -3.75285,6.52794 -7.01416,12.30304 -7.24738,12.83358 -0.45496,1.03503 5.69317,1.89363 13.28771,1.85562 4.43465,-0.0222 5.04904,-0.65656 11.91743,-12.30545 z"
         style="fill:#aa0000" />
      <path
         inkscape:connector-curvature="0"
         id="path4171"
         d="m 154.97965,588.02266 c 3.92059,-6.88209 6.91129,-12.72993 6.64597,-12.99522 -0.26529,-0.26532 -11.86468,-0.31498 -25.77644,-0.11047 l -25.29411,0.37201 6.91985,12.62325 6.91984,12.62324 11.72825,0 11.72827,0 7.12837,-12.51288 z"
         style="fill:#aa0000" />
      <path
         inkscape:connector-curvature="0"
         id="path4169"
         d="m 641.754,560.17447 c 4.28891,-7.18719 7.58871,-13.27652 7.33268,-13.53185 -0.25601,-0.25536 -55.17585,-0.9142 -122.04412,-1.4641 l -121.57874,-0.99986 -7.1898,12.56412 c -3.95456,6.91027 -6.90812,12.84601 -6.56353,13.19054 0.63196,0.63202 136.71423,2.67966 205.22611,3.08808 l 37.01926,0.22066 7.79814,-13.06759 z"
         style="fill:#ff0000" />
      <path
         inkscape:connector-curvature="0"
         id="path4167"
         d="m 499.18943,535.594 c 0,-0.44098 -2.20231,-4.7397 -4.89387,-9.55272 l -4.89387,-8.75097 -14.21159,0 c -7.81643,0 -14.21157,0.35124 -14.21157,0.78051 0,1.2107 7.04307,13.26359 9.3128,15.93678 1.67719,1.97542 4.34951,2.38817 15.46286,2.38817 7.38932,0 13.43524,-0.36079 13.43524,-0.80177 z"
         style="fill:#800000" />
      <path
         inkscape:connector-curvature="0"
         id="path4165"
         d="m 536.51014,529.91358 c -2.05382,-3.56524 -5.18728,-8.83151 -6.96299,-11.70285 l -3.22867,-5.22064 19.01171,-32.30791 c 16.86696,-28.66318 50.59475,-86.24132 68.48757,-116.91779 3.50228,-6.00457 6.87073,-10.9174 7.48551,-10.9174 0.61478,0 16.62093,27.92042 35.56943,62.04537 18.94838,34.12494 34.97621,62.20264 35.6172,62.39488 0.64113,0.1922 4.13673,-4.69926 7.76826,-10.87003 5.68088,-9.65328 6.41863,-11.72562 5.28444,-14.84421 -2.37168,-6.52161 -82.98125,-149.01363 -84.59605,-149.5389 -0.54097,-0.17601 -8.01203,11.79905 -16.60223,26.61117 -8.59036,14.81207 -24.01311,41.09895 -34.27273,58.41523 -10.25949,17.3163 -31.04935,52.79915 -46.19957,78.85079 l -27.54597,47.36659 6.98197,11.55895 6.98195,11.55894 14.97731,0 14.97743,0 -3.73457,-6.48219 z"
         style="fill:#ff5555" />
      <path
         inkscape:connector-curvature="0"
         id="path4163"
         d="M 377.17055,507.96883 C 376.07198,505.84431 363.27966,483.276 348.74328,457.81703 334.20691,432.35804 307.9159,386.20482 290.31895,355.2543 l -31.99467,-56.27367 -16.03491,-0.0192 c -8.81921,-0.0113 -16.03492,0.28209 -16.03492,0.6503 0,0.36822 9.45965,16.86376 21.02156,36.65675 11.56181,19.79298 30.68145,52.80687 42.48794,73.36415 24.15201,42.053 54.53923,94.48578 57.44939,99.1284 1.8063,2.88157 2.84877,3.07052 16.93972,3.07052 l 15.01511,0 -1.99762,-3.86276 z"
         style="fill:#aa0000" />
      <path
         inkscape:connector-curvature="0"
         id="path4161"
         d="m 498.05675,493.74965 c 12.22026,-20.76401 55.74285,-95.48994 64.97721,-111.56218 4.09676,-7.13043 7.9188,-13.57853 8.49334,-14.32909 1.0879,-1.42122 17.94751,-30.20957 32.63674,-55.7284 4.6818,-8.13349 8.29382,-15.00674 8.02675,-15.2739 -0.26722,-0.26714 -7.38275,-0.12192 -15.81251,0.32283 l -15.3265,0.80856 -10.65976,18.55934 c -5.86278,10.20766 -23.59782,40.97415 -39.41126,68.37 -15.81345,27.39584 -38.2715,66.54497 -49.90672,86.99804 l -21.15504,37.18738 14.5511,0 14.55113,0 9.03552,-15.35258 z"
         style="fill:#ff0000" />
      <path
         inkscape:connector-curvature="0"
         id="path4159"
         d="m 232.25082,499.89068 c -7.82355,-13.81334 -5.84,-12.62324 -21.03925,-12.62324 -7.48841,0 -13.6153,0.36078 -13.6153,0.80177 0,0.44098 2.20221,4.73969 4.89381,9.55272 l 4.89381,8.75094 14.26917,0 14.26914,0 -3.67138,-6.48219 z"
         style="fill:#aa0000" />
      <path
         inkscape:connector-curvature="0"
         id="path4157"
         d="m 402.7679,480.20729 c 7.24697,-12.51463 13.17636,-23.06112 13.17636,-23.43659 0,-0.37546 -3.16469,-5.97797 -7.03271,-12.45002 -5.05505,-8.45802 -7.4491,-11.35101 -8.51313,-10.28697 -0.8143,0.8142 -3.94403,5.85872 -6.9552,11.21004 -3.01116,5.3513 -6.08891,9.9223 -6.83949,10.15777 -0.75056,0.23545 -14.22592,-22.12888 -29.94533,-49.69854 -15.7193,-27.56969 -36.4828,-63.78853 -46.14101,-80.48634 -9.65822,-16.69779 -17.30532,-30.82219 -16.99363,-31.38752 3.59498,-6.52017 37.02609,-63.97864 37.51969,-64.48525 0.36545,-0.3753 0.89933,-0.0684 1.1863,0.68233 0.28687,0.75059 3.34033,6.20361 6.78557,12.11785 l 6.26387,10.75317 7.35669,-12.52086 c 4.04613,-6.88645 7.35671,-13.18273 7.35671,-13.99169 0,-0.80897 -6.25704,-12.42857 -13.90469,-25.82131 l -13.90467,-24.35044 -3.283,5.75418 c -16.74646,29.35104 -61.70554,111.5145 -61.70554,112.76769 0,0.88151 5.29616,10.93979 11.76909,22.35174 43.54787,76.77523 55.47402,97.74282 77.39153,136.06404 13.52231,23.64298 25.86017,45.2666 27.41728,48.05247 2.14787,3.84283 3.19169,4.66619 4.32504,3.41168 0.82169,-0.90943 7.42331,-11.89277 14.67027,-24.40743 z"
         style="fill:#ff5555" />
      <path
         inkscape:connector-curvature="0"
         id="path4155"
         d="m 682.81912,480.78522 c -1.53198,-4.09506 -61.45309,-112.21585 -62.17376,-112.18519 -0.37529,0.0148 -3.92139,5.89187 -7.88019,13.05753 l -7.19783,13.02852 10.47443,18.65601 c 5.76096,10.2608 13.45227,23.74121 17.09187,29.95645 3.63944,6.21523 6.61716,11.57828 6.61716,11.91786 0,0.3396 -15.76883,0.78131 -35.04183,0.98163 l -35.04186,0.36422 -7.20876,12.28207 -7.20862,12.28206 48.73265,0.70829 c 26.8032,0.38955 55.70729,0.85012 64.23145,1.02352 14.2625,0.29007 15.42739,0.12474 14.60529,-2.07297 z"
         style="fill:#800000" />
      <path
         inkscape:connector-curvature="0"
         id="path4153"
         d="m 473.2606,469.16634 c 3.37758,-6.18168 6.33098,-11.96273 6.56328,-12.8468 0.3039,-1.15688 -3.47803,-1.60136 -13.49473,-1.58595 l -13.91682,0.0215 -4.31362,-7.96674 c -3.96028,-7.31411 -56.60849,-99.03353 -59.99465,-104.51751 -0.81102,-1.31351 -1.78731,-2.38628 -2.16969,-2.38396 -1.61715,0.0113 -13.76534,23.68109 -13.07564,25.47828 0.94518,2.46328 63.47378,111.03989 65.29081,113.37318 0.90902,1.16739 5.69084,1.6998 15.14913,1.68669 l 13.82089,-0.0192 6.14104,-11.23943 z"
         style="fill:#800000" />
      <path
         inkscape:connector-curvature="0"
         id="path4151"
         d="m 288.80198,477.9854 c -0.25014,-0.60168 -3.44184,-6.36464 -7.09262,-12.80656 l -6.63778,-11.71258 -118.91231,-0.59227 c -65.401757,-0.32574 -119.219362,-0.34176 -119.594633,-0.0357 -0.375286,0.30614 2.171415,5.87502 5.65933,12.37533 l 6.341668,11.81866 22.998834,0.73253 c 38.118371,1.21407 217.726481,1.39638 217.237511,0.22051 z"
         style="fill:#aa0000" />
      <path
         inkscape:connector-curvature="0"
         id="path4149"
         d="m 304.49262,465.16508 3.86326,-7.2445 -7.18749,-12.56168 c -7.99072,-13.96571 -7.00787,-13.90003 -14.19329,-0.94823 l -3.8578,6.95388 5.19203,8.73989 c 9.1462,15.39619 8.9681,15.16842 10.70534,13.68437 0.88799,-0.75857 3.353,-4.63923 5.47795,-8.62373 z"
         style="fill:#ff5555" />
      <path
         inkscape:connector-curvature="0"
         id="path4147"
         d="m 485.06776,446.64745 c 1.79551,-1.14498 15.48634,-24.44593 15.48634,-26.35672 0,-0.69136 -4.8783,-1.25704 -10.84056,-1.25704 l -10.84058,0 -7.58255,13.50984 c -4.17044,7.43045 -7.58255,13.87853 -7.58255,14.3291 0,1.17766 19.48226,0.97226 21.3599,-0.22518 z"
         style="fill:#ff0000" />
      <path
         inkscape:connector-curvature="0"
         id="path4145"
         d="m 624.73939,446.92088 c 0,-0.47708 -3.41211,-6.9469 -7.58254,-14.37735 l -7.58255,-13.50984 -8.58204,0 c -6.47906,0 -9.08655,0.58519 -10.64132,2.38817 -1.70816,1.98104 -14.73986,24.5284 -14.73986,25.50282 0,0.16666 11.05387,0.42927 24.56414,0.58344 13.51028,0.15408 24.56417,-0.11019 24.56417,-0.58724 z"
         style="fill:#ff0000" />
      <path
         inkscape:connector-curvature="0"
         id="path4143"
         d="m 277.94026,442.36585 c 1.3457,-1.94941 4.34594,-6.92195 6.66753,-11.05009 l 4.22081,-7.50571 -7.61202,-13.4073 -7.61215,-13.40727 -2.3141,3.85454 c -1.27282,2.12003 -4.00217,6.82805 -6.06529,10.46233 l -3.75121,6.60773 -90.96098,-0.96656 c -50.02853,-0.5316 -91.153208,-1.13855 -91.388184,-1.34881 -0.234989,-0.21028 6.275511,-11.96037 14.46781,-26.11132 40.304714,-69.62065 52.548104,-91.11105 53.091884,-93.19044 0.51516,-1.97001 -0.99558,-2.3131 -11.50241,-2.61229 -10.22948,-0.29132 -12.42072,0.0345 -14.20383,2.11242 -2.31474,2.69733 -82.400687,142.92276 -83.819779,146.76314 -0.831166,2.24929 5.184237,2.40143 109.460889,2.76845 60.68722,0.2136 114.51056,0.43048 119.60749,0.48197 8.49059,0.0858 9.47206,-0.20347 11.71354,-3.45079 z"
         style="fill:#ff0000" />
      <path
         inkscape:connector-curvature="0"
         id="path4141"
         d="m 463.58138,429.50228 c 3.82245,-6.62668 6.94987,-12.2702 6.94987,-12.54114 0,-0.98559 -59.69307,-104.63071 -63.43172,-110.13641 -1.38434,-2.03862 -2.49436,-0.76364 -8.3173,9.55271 -3.69594,6.54796 -6.90771,12.61795 -7.13753,13.48893 -0.39369,1.4931 63.83269,112.87853 64.61859,112.0655 0.20242,-0.20965 3.49576,-5.80289 7.31809,-12.42959 z"
         style="fill:#ff5555" />
      <path
         inkscape:connector-curvature="0"
         id="path4139"
         d="m 391.66477,431.9409 5.06117,-8.90233 -6.288,-10.53165 c -9.23653,-15.46986 -8.72588,-15.25502 -13.99461,-5.88808 -2.50651,4.45623 -4.52541,8.612 -4.4865,9.23505 0.10115,1.61235 13.14194,24.92046 13.96457,24.95811 0.37527,0.017 2.95985,-3.97485 5.74337,-8.8711 z"
         style="fill:#ff0000" />
      <path
         inkscape:connector-curvature="0"
         id="path4135"
         d="m 124.37925,402.32122 c 2.49788,-3.94311 10.55066,-17.8097 17.89506,-30.81463 7.34441,-13.00494 13.8534,-23.13765 14.46438,-22.51713 0.611,0.62051 3.84049,6.04103 7.17661,12.04559 3.33612,6.00459 10.70645,19.20781 16.37853,29.34053 l 10.31287,18.42311 14.53951,0.38863 14.53948,0.38864 -4.45637,-7.89435 c -5.25367,-9.30678 -47.1896,-81.82846 -54.52847,-94.29855 l -5.07168,-8.61772 -24.2288,42.05224 c -13.32583,23.12876 -27.46572,47.57923 -31.421966,54.33435 l -7.193191,12.28208 3.618394,0.78887 c 1.990122,0.43389 8.076933,0.89659 13.526223,1.02824 l 9.90779,0.23939 4.54163,-7.16929 z"
         style="fill:#ff0000" />
      <path
         inkscape:connector-curvature="0"
         id="path4131"
         d="m 181.22017,408.79205 c 0,-0.7377 -17.54941,-32.42396 -22.18672,-40.05912 -2.52913,-4.16409 -2.90729,-4.35174 -4.12563,-2.04701 -0.7377,1.39552 -3.37973,5.66689 -5.87118,9.49195 -8.4348,12.94963 -8.41312,12.68427 -1.92823,23.59992 l 5.76465,9.70335 14.17356,0 c 7.79545,0 14.17355,-0.3101 14.17355,-0.68909 z"
         style="fill:#800000" />
      <path
         inkscape:connector-curvature="0"
         id="path4127"
         d="m 379.42746,335.10634 c 28.09483,-49.03243 61.11055,-106.15937 61.76081,-106.86444 0.21289,-0.23089 9.11385,14.81466 19.77975,33.43452 18.56189,32.40407 19.30891,34.0005 17.43877,37.26603 -1.07455,1.87643 -5.35458,9.2457 -9.51124,16.37612 -4.15665,7.13043 -11.12237,19.10337 -15.4791,26.60656 l -7.92154,13.64216 6.2393,11.60433 c 3.43161,6.38239 6.99437,11.60433 7.91729,11.60433 1.63436,0 48.09266,-79.16367 48.05282,-81.88051 -0.0127,-0.75056 -4.31034,-8.73392 -9.55397,-17.74076 -31.62852,-54.32681 -43.73619,-75.16183 -50.55655,-86.99804 -4.21686,-7.31807 -8.00193,-13.30557 -8.41117,-13.30557 -0.40926,0 -11.17875,18.21974 -23.93217,40.48832 -12.75345,22.26859 -35.54037,62.03183 -50.63763,88.3627 l -27.44962,47.87438 4.77185,8.8704 c 6.23902,11.59733 10.09327,17.984 10.54375,17.47138 0.19943,-0.22714 12.32644,-21.2925 26.94865,-46.81191 z"
         style="fill:#ff5555" />
      <path
         inkscape:connector-curvature="0"
         id="path4125"
         d="m 350.63242,316.30525 c 9.48805,-16.67995 31.53245,-55.19839 48.98771,-85.59652 17.45517,-30.39814 32.02511,-56.34404 32.3776,-57.65753 0.58218,-2.16897 -0.74238,-2.38817 -14.42939,-2.38817 l -15.07037,0 -23.5049,41.28139 c -12.9277,22.7048 -31.8148,55.69905 -41.97137,73.32063 -10.15661,17.62155 -18.68514,33.28119 -18.95222,34.79923 -0.47053,2.67395 12.5198,26.68046 14.39638,26.60499 0.50356,-0.0213 8.67851,-13.68407 18.16656,-30.36402 z"
         style="fill:#ff0000" />
      <path
         inkscape:connector-curvature="0"
         id="path4123"
         d="m 450.71002,330.67116 c 5.14934,-8.81923 11.15881,-19.27963 13.35445,-23.24537 l 3.99208,-7.21042 -15.29596,0.38707 -15.29581,0.38702 -6.05972,10.49552 -6.0597,10.49552 7.22608,12.36279 c 3.97434,6.79953 7.57491,12.36279 8.00123,12.36279 0.42632,0 4.98816,-7.21572 10.13735,-16.03492 z"
         style="fill:#ff0000" />
      <path
         inkscape:connector-curvature="0"
         id="path4117"
         d="m 463.44572,284.23009 c -14.21392,-24.84 -22.33536,-38.46557 -22.93731,-38.48221 -1.72155,-0.0475 -13.86607,23.36109 -13.12368,25.29579 0.45239,1.17886 3.31029,6.40308 6.35092,11.6094 l 5.52845,9.46602 14.34791,0 14.34791,0 -4.5142,-7.889 z"
         style="fill:#800000" />
      <path
         inkscape:connector-curvature="0"
         id="path4115"
         d="m 291.97676,231.46024 c 17.89389,-32.2365 32.53426,-59.04623 32.53426,-59.57716 0,-1.24987 -25.26026,-3.15899 -27.06217,-2.04533 -0.75316,0.46547 -5.21184,7.75022 -9.9081,16.18837 -4.69625,8.43814 -19.79284,35.21417 -33.5478,59.50226 -13.75511,24.28813 -25.00917,44.42012 -25.00917,44.73782 0,0.31767 6.85328,0.40396 15.22937,0.19176 l 15.22936,-0.38587 32.53425,-58.61183 z"
         style="fill:#ff0000" />
      <path
         inkscape:connector-curvature="0"
         id="path4111"
         d="m 334.05189,273.03434 7.0166,-12.26136 -4.71482,-8.36631 -4.71479,-8.36637 -5.42515,9.36915 c -7.42287,12.8192 -8.53018,15.05006 -8.50016,17.12628 0.026,1.82591 7.689,14.75999 8.74443,14.75999 0.31742,0 3.7347,-5.51764 7.59389,-12.26138 z"
         style="fill:#800000" />
    </g>
  </g>
</svg>
